<svg width="22" height="22" viewBox="0 0 22 22" fill="none" xmlns="http://www.w3.org/2000/svg">
<path d="M8.9375 10.3125V15.8125L13.75 13.0625L8.9375 10.3125Z" fill="#8BC53F"/>
<path d="M17.875 19.25H4.125C3.76044 19.2496 3.41091 19.1047 3.15313 18.8469C2.89535 18.5891 2.75036 18.2396 2.75 17.875V8.25C2.75036 7.88544 2.89535 7.53591 3.15313 7.27813C3.41091 7.02035 3.76044 6.87536 4.125 6.875H17.875C18.2396 6.87536 18.5891 7.02035 18.8469 7.27813C19.1047 7.53591 19.2496 7.88544 19.25 8.25V17.875C19.2496 18.2396 19.1047 18.5891 18.8469 18.8469C18.5891 19.1047 18.2396 19.2496 17.875 19.25ZM4.125 8.25V17.875H17.875V8.25H4.125ZM4.125 4.125H17.875V5.5H4.125V4.125ZM5.5 1.375H16.5V2.75H5.5V1.375Z" fill="#8BC53F"/>
</svg>
