<svg width="24" height="25" viewBox="0 0 24 25" fill="none" xmlns="http://www.w3.org/2000/svg">
<path d="M13.8297 19.4998C13.6803 19.5003 13.5327 19.4673 13.3977 19.4033C13.2627 19.3393 13.1438 19.2458 13.0497 19.1298L8.21968 13.1298C8.07259 12.9509 7.99219 12.7264 7.99219 12.4948C7.99219 12.2632 8.07259 12.0387 8.21968 11.8598L13.2197 5.85979C13.3894 5.65557 13.6333 5.52715 13.8978 5.50277C14.1622 5.47839 14.4255 5.56005 14.6297 5.72979C14.8339 5.89953 14.9623 6.14344 14.9867 6.40786C15.0111 6.67229 14.9294 6.93557 14.7597 7.13979L10.2897 12.4998L14.6097 17.8598C14.732 18.0066 14.8096 18.1853 14.8335 18.3749C14.8574 18.5644 14.8265 18.7568 14.7444 18.9294C14.6624 19.1019 14.5326 19.2473 14.3705 19.3484C14.2084 19.4495 14.0207 19.502 13.8297 19.4998Z" fill="black"/>
</svg>
