<svg width="15" height="14" viewBox="0 0 15 14" fill="none" xmlns="http://www.w3.org/2000/svg">
<path d="M3.27822 10.9844C3.31143 10.9844 3.34463 10.9811 3.37783 10.9761L6.17021 10.4863C6.20342 10.4797 6.23496 10.4647 6.2582 10.4398L13.2956 3.40244C13.311 3.38708 13.3232 3.36884 13.3315 3.34876C13.3399 3.32867 13.3442 3.30714 13.3442 3.2854C13.3442 3.26366 13.3399 3.24213 13.3315 3.22204C13.3232 3.20196 13.311 3.18372 13.2956 3.16836L10.5364 0.40752C10.5049 0.375977 10.4634 0.359375 10.4186 0.359375C10.3737 0.359375 10.3322 0.375977 10.3007 0.40752L3.26328 7.44492C3.23838 7.46982 3.22344 7.49971 3.2168 7.53291L2.72705 10.3253C2.7109 10.4142 2.71667 10.5058 2.74386 10.592C2.77105 10.6782 2.81885 10.7564 2.88311 10.82C2.99268 10.9263 3.13047 10.9844 3.27822 10.9844V10.9844ZM4.39717 8.08906L10.4186 2.06934L11.6354 3.28623L5.61406 9.30596L4.13818 9.5666L4.39717 8.08906V8.08906ZM13.6094 12.3789H1.39062C1.09678 12.3789 0.859375 12.6163 0.859375 12.9102V13.5078C0.859375 13.5809 0.919141 13.6406 0.992188 13.6406H14.0078C14.0809 13.6406 14.1406 13.5809 14.1406 13.5078V12.9102C14.1406 12.6163 13.9032 12.3789 13.6094 12.3789Z" fill="black"/>
</svg>
