<svg width="18" height="18" viewBox="0 0 18 18" fill="none" xmlns="http://www.w3.org/2000/svg">
<path d="M14.5494 0.799324C14.7216 0.617252 14.9286 0.471552 15.158 0.370837C15.3875 0.270122 15.6349 0.216435 15.8855 0.21295C16.1361 0.209465 16.3848 0.256253 16.617 0.350547C16.8492 0.444842 17.0602 0.58473 17.2374 0.761943C17.4146 0.939156 17.5545 1.1501 17.6488 1.3823C17.7431 1.6145 17.7899 1.86325 17.7864 2.11384C17.7829 2.36443 17.7292 2.61178 17.6285 2.84127C17.5278 3.07076 17.3821 3.27773 17.2 3.44995L11.7062 8.9437C11.699 8.95096 11.6932 8.95958 11.6893 8.96907C11.6853 8.97856 11.6833 8.98874 11.6833 8.99901C11.6833 9.00929 11.6853 9.01946 11.6893 9.02895C11.6932 9.03845 11.699 9.04707 11.7062 9.05432L17.2 14.5481C17.3765 14.7216 17.5168 14.9284 17.6129 15.1565C17.7091 15.3846 17.7591 15.6294 17.7602 15.877C17.7612 16.1245 17.7132 16.3697 17.619 16.5986C17.5248 16.8275 17.3861 17.0354 17.2112 17.2105C17.0362 17.3855 16.8282 17.5242 16.5994 17.6185C16.3705 17.7127 16.1253 17.7608 15.8778 17.7598C15.6302 17.7588 15.3854 17.7088 15.1573 17.6128C14.9292 17.5167 14.7224 17.3764 14.5487 17.2L9.055 11.7062C9.04774 11.6989 9.03912 11.6932 9.02963 11.6892C9.02014 11.6853 9.00996 11.6832 8.99969 11.6832C8.98941 11.6832 8.97924 11.6853 8.96974 11.6892C8.96025 11.6932 8.95163 11.6989 8.94437 11.7062L3.45062 17.2C3.27706 17.3764 3.07027 17.5168 2.84219 17.6129C2.61411 17.709 2.36926 17.7591 2.12175 17.7601C1.87424 17.7611 1.62897 17.7132 1.40009 17.6189C1.17122 17.5247 0.963261 17.3861 0.788223 17.2111C0.613184 17.0361 0.474525 16.8282 0.380244 16.5993C0.285964 16.3705 0.237928 16.1252 0.238906 15.8777C0.239885 15.6302 0.289859 15.3853 0.385946 15.1572C0.482033 14.9291 0.622332 14.7223 0.798749 14.5487L6.2925 9.05495C6.29977 9.04769 6.30555 9.03907 6.30949 9.02958C6.31342 9.02009 6.31545 9.00991 6.31545 8.99964C6.31545 8.98936 6.31342 8.97919 6.30949 8.96969C6.30555 8.9602 6.29977 8.95158 6.2925 8.94432L0.798749 3.45057C0.451806 3.09802 0.25823 2.62265 0.260186 2.12802C0.262141 1.63339 0.45947 1.15956 0.80919 0.809763C1.15891 0.459961 1.63268 0.26252 2.12732 0.260448C2.62195 0.258376 3.09736 0.45184 3.45 0.798699L8.94375 6.29245C8.95101 6.29972 8.95963 6.3055 8.96912 6.30944C8.97861 6.31337 8.98879 6.3154 8.99906 6.3154C9.00934 6.3154 9.01951 6.31337 9.029 6.30944C9.0385 6.3055 9.04712 6.29972 9.05437 6.29245L14.5481 0.798699L14.5494 0.799324Z" fill="black"/>
</svg>
