<svg width="24" height="25" viewBox="0 0 24 25" fill="none" xmlns="http://www.w3.org/2000/svg">
<path d="M11.9996 2.90002C8.02319 2.90002 4.79964 6.12357 4.79964 10.1V14.403L3.95112 15.2515C3.60792 15.5947 3.50525 16.1108 3.69099 16.5592C3.87673 17.0077 4.31429 17.3 4.79964 17.3H19.1996C19.685 17.3 20.1226 17.0077 20.3083 16.5592C20.494 16.1108 20.3914 15.5947 20.0482 15.2515L19.1996 14.403V10.1C19.1996 6.12357 15.9761 2.90002 11.9996 2.90002Z" fill="#8BC53F"/>
<path d="M11.9996 22.1C10.0114 22.1 8.39961 20.4883 8.39961 18.5H15.5996C15.5996 20.4883 13.9878 22.1 11.9996 22.1Z" fill="#8BC53F"/>
</svg>
