<svg width="27" height="26" viewBox="0 0 27 26" fill="none" xmlns="http://www.w3.org/2000/svg">
<path d="M23.0144 7.54814L18.9519 3.48564C18.876 3.41033 18.7859 3.35076 18.6869 3.31032C18.5879 3.26989 18.4819 3.2494 18.375 3.25001H5.375C4.94402 3.25001 4.5307 3.42122 4.22595 3.72596C3.9212 4.03071 3.75 4.44404 3.75 4.87501V21.125C3.75 21.556 3.9212 21.9693 4.22595 22.2741C4.5307 22.5788 4.94402 22.75 5.375 22.75H21.625C22.056 22.75 22.4693 22.5788 22.774 22.2741C23.0788 21.9693 23.25 21.556 23.25 21.125V8.12501C23.2506 8.01808 23.2301 7.91208 23.1897 7.81309C23.1493 7.7141 23.0897 7.62406 23.0144 7.54814ZM10.25 4.87501H16.75V8.12501H10.25V4.87501ZM16.75 21.125H10.25V14.625H16.75V21.125ZM18.375 21.125V14.625C18.375 14.194 18.2038 13.7807 17.899 13.476C17.5943 13.1712 17.181 13 16.75 13H10.25C9.81902 13 9.4057 13.1712 9.10095 13.476C8.79621 13.7807 8.625 14.194 8.625 14.625V21.125H5.375V4.87501H8.625V8.12501C8.625 8.55599 8.79621 8.96932 9.10095 9.27406C9.4057 9.57881 9.81902 9.75001 10.25 9.75001H16.75C17.181 9.75001 17.5943 9.57881 17.899 9.27406C18.2038 8.96932 18.375 8.55599 18.375 8.12501V5.20814L21.625 8.45814V21.125H18.375Z" fill="white"/>
</svg>
