<svg width="175" height="57" viewBox="0 0 175 57" fill="none" xmlns="http://www.w3.org/2000/svg">
    <path
        d="M24.7118 42.764V56.6306H17.704V43.8412C17.704 39.9096 15.9069 38.1247 12.8071 38.1247C9.43663 38.1247 7.01175 40.1966 7.01175 44.6511V56.6306H0V23.2122L7.01175 21.8008V34.9165C8.89515 33.0254 11.5947 32.0347 14.6945 32.0347C20.3996 32.0347 24.7118 35.3647 24.7118 42.7522"
        fill="#424243" />
    <path
        d="M51.9037 32.4062V56.6248H45.2529V53.7469C44.3086 54.795 43.1492 55.6261 41.8543 56.1833C40.5594 56.7404 39.1595 57.0104 37.7507 56.9747C31.6846 56.9747 27.4155 53.5542 27.4155 46.0803V32.4062H34.4234V45.0541C34.4234 49.1076 36.2244 50.9083 39.3241 50.9083C42.5573 50.9083 44.8959 48.8363 44.8959 44.3818V32.4062H51.9037Z"
        fill="#424243" />
    <path
        d="M81.2493 44.5102C81.2493 52.1178 75.9954 56.9811 69.2073 56.9811C65.9741 56.9811 63.3688 55.9471 61.6148 53.8359V56.6273H54.9209V12.743L61.9287 11.4023V34.9525C63.7297 32.9867 66.1978 32.0274 69.2073 32.0274C75.9954 32.0274 81.2493 36.8908 81.2493 44.4984V44.5102ZM74.1512 44.4984C74.1512 40.3112 71.4988 37.7911 67.9949 37.7911C64.4909 37.7911 61.8424 40.323 61.8424 44.5102C61.8424 48.6973 64.4909 51.2174 67.9949 51.2174C71.4988 51.2174 74.1512 48.6973 74.1512 44.5102"
        fill="#424243" />
    <path
        d="M109.559 44.5156C109.559 52.1232 104.301 56.9866 97.5169 56.9866C94.2837 56.9866 91.6744 55.9526 89.9244 53.8413V56.6327H83.2305V7.11056L90.2383 5.71484V34.9579C92.0354 32.9921 94.5073 32.0328 97.5169 32.0328C104.301 32.0328 109.559 36.8962 109.559 44.5038V44.5156ZM102.461 44.5038C102.461 40.3167 99.8083 37.7965 96.3044 37.7965C92.8005 37.7965 90.148 40.3167 90.148 44.5038C90.148 48.6909 92.8005 51.2111 96.3044 51.2111C99.8083 51.2111 102.461 48.6909 102.461 44.5038Z"
        fill="#424243" />
    <path
        d="M130.583 49.0116L134.314 53.0651C132.066 55.6324 128.695 56.9966 124.34 56.9966C115.982 56.9966 110.544 51.7283 110.544 44.5257C110.544 37.323 116.037 32.0547 123.492 32.0547C130.324 32.0547 135.939 36.5563 135.982 44.3016L118.101 47.7692C119.133 50.1518 121.381 51.3705 124.524 51.3705C127.087 51.3705 128.931 50.5842 130.59 49.0116H130.583ZM117.426 43.7905L129.197 41.4944C128.523 39.0175 126.412 37.3505 123.492 37.3505C119.988 37.3505 117.56 39.7095 117.426 43.7905Z"
        fill="#424243" />
    <path
        d="M152.202 32.043V38.5261C151.618 38.479 151.17 38.4357 150.633 38.4357C146.768 38.4357 144.21 40.5509 144.21 45.1902V56.6232H137.178V32.4047H143.876V35.6011C145.583 33.2421 148.459 32.043 152.187 32.043"
        fill="#424243" />
    <path
        d="M152.242 54.3703L154.596 49.3261C156.754 50.7218 160.034 51.6851 162.997 51.6851C166.234 51.6851 167.446 50.828 167.446 49.4795C167.446 45.5164 152.842 49.5699 152.842 39.8903C152.842 35.2982 156.978 32.0547 164.033 32.0547C167.356 32.0547 171.04 32.841 173.332 34.1699L170.978 39.1669C168.854 37.9651 166.452 37.3441 164.013 37.3663C160.874 37.3663 159.516 38.357 159.516 39.619C159.516 43.759 174.121 39.7527 174.121 49.2986C174.121 53.8003 169.942 56.9966 162.71 56.9966C158.622 56.9966 154.47 55.8722 152.238 54.3861"
        fill="#424243" />
    <path d="M137.17 2.78749L152.022 0L137.17 14.8063V2.78749Z" fill="#9EC54C" />
</svg>