<svg width="35" height="35" viewBox="0 0 35 35" fill="none" xmlns="http://www.w3.org/2000/svg">
<path d="M17.5 18.5938V27.3438H6.875V18.5938H17.5ZM17.5 16.4062H6.875C6.31141 16.4062 5.77091 16.6367 5.3724 17.047C4.97388 17.4572 4.75 18.0136 4.75 18.5938V27.3438C4.75 27.9239 4.97388 28.4803 5.3724 28.8905C5.77091 29.3008 6.31141 29.5312 6.875 29.5312H17.5C18.0636 29.5312 18.6041 29.3008 19.0026 28.8905C19.4011 28.4803 19.625 27.9239 19.625 27.3438V18.5938C19.625 18.0136 19.4011 17.4572 19.0026 17.047C18.6041 16.6367 18.0636 16.4062 17.5 16.4062ZM29.1875 6.5625V12.0312H18.5625V6.5625H29.1875ZM29.1875 4.375H18.5625C17.9989 4.375 17.4584 4.60547 17.0599 5.0157C16.6614 5.42594 16.4375 5.98234 16.4375 6.5625V12.0312C16.4375 12.6114 16.6614 13.1678 17.0599 13.578C17.4584 13.9883 17.9989 14.2188 18.5625 14.2188H29.1875C29.7511 14.2188 30.2916 13.9883 30.6901 13.578C31.0886 13.1678 31.3125 12.6114 31.3125 12.0312V6.5625C31.3125 5.98234 31.0886 5.42594 30.6901 5.0157C30.2916 4.60547 29.7511 4.375 29.1875 4.375ZM29.1875 18.5938V24.0625H23.875V18.5938H29.1875ZM29.1875 16.4062H23.875C23.3114 16.4062 22.7709 16.6367 22.3724 17.047C21.9739 17.4572 21.75 18.0136 21.75 18.5938V24.0625C21.75 24.6427 21.9739 25.1991 22.3724 25.6093C22.7709 26.0195 23.3114 26.25 23.875 26.25H29.1875C29.7511 26.25 30.2916 26.0195 30.6901 25.6093C31.0886 25.1991 31.3125 24.6427 31.3125 24.0625V18.5938C31.3125 18.0136 31.0886 17.4572 30.6901 17.047C30.2916 16.6367 29.7511 16.4062 29.1875 16.4062ZM12.1875 6.5625V12.0312H6.875V6.5625H12.1875ZM12.1875 4.375H6.875C6.31141 4.375 5.77091 4.60547 5.3724 5.0157C4.97388 5.42594 4.75 5.98234 4.75 6.5625V12.0312C4.75 12.6114 4.97388 13.1678 5.3724 13.578C5.77091 13.9883 6.31141 14.2188 6.875 14.2188H12.1875C12.7511 14.2188 13.2916 13.9883 13.6901 13.578C14.0886 13.1678 14.3125 12.6114 14.3125 12.0312V6.5625C14.3125 5.98234 14.0886 5.42594 13.6901 5.0157C13.2916 4.60547 12.7511 4.375 12.1875 4.375Z" fill="#8BC53F"/>
</svg>
